<mxfile host="app.diagrams.net" agent="Mozilla/5.0 (Windows NT 10.0; Win64; x64) AppleWebKit/537.36 (KHTML, like Gecko) Chrome/130.0.0.0 Safari/537.36" version="24.8.3">
  <diagram name="Trang-1" id="T8L_tKQehLqD5IShe_12">
    <mxGraphModel dx="1235" dy="669" grid="1" gridSize="10" guides="1" tooltips="1" connect="1" arrows="1" fold="1" page="1" pageScale="1" pageWidth="827" pageHeight="1169" math="0" shadow="0">
      <root>
        <mxCell id="0" />
        <mxCell id="1" parent="0" />
        <mxCell id="H1n2g7a09TPqQZJ90nSM-27" style="rounded=0;orthogonalLoop=1;jettySize=auto;html=1;entryX=0;entryY=0.5;entryDx=0;entryDy=0;exitX=0.483;exitY=0.167;exitDx=0;exitDy=0;exitPerimeter=0;" edge="1" parent="1" source="H1n2g7a09TPqQZJ90nSM-1" target="H1n2g7a09TPqQZJ90nSM-9">
          <mxGeometry relative="1" as="geometry" />
        </mxCell>
        <mxCell id="H1n2g7a09TPqQZJ90nSM-1" value="" style="shape=waypoint;sketch=0;fillStyle=solid;size=6;pointerEvents=1;points=[];fillColor=none;resizable=0;rotatable=0;perimeter=centerPerimeter;snapToPoint=1;" vertex="1" parent="1">
          <mxGeometry x="50" y="220" width="20" height="20" as="geometry" />
        </mxCell>
        <mxCell id="H1n2g7a09TPqQZJ90nSM-37" style="rounded=0;orthogonalLoop=1;jettySize=auto;html=1;exitX=1;exitY=0.5;exitDx=0;exitDy=0;entryX=0;entryY=0.5;entryDx=0;entryDy=0;" edge="1" parent="1" source="H1n2g7a09TPqQZJ90nSM-9" target="H1n2g7a09TPqQZJ90nSM-11">
          <mxGeometry relative="1" as="geometry" />
        </mxCell>
        <mxCell id="H1n2g7a09TPqQZJ90nSM-9" value="&lt;p style=&quot;margin:0px;margin-top:4px;text-align:center;text-decoration:underline;&quot;&gt;&lt;b&gt;Uploaded&lt;/b&gt;&lt;/p&gt;&lt;hr size=&quot;1&quot; style=&quot;border-style:solid;&quot;&gt;&lt;p style=&quot;margin:0px;margin-left:8px;&quot;&gt;&lt;br&gt;&lt;/p&gt;" style="verticalAlign=top;align=left;overflow=fill;html=1;whiteSpace=wrap;rounded=1;" vertex="1" parent="1">
          <mxGeometry x="150" y="135" width="270" height="190" as="geometry" />
        </mxCell>
        <mxCell id="H1n2g7a09TPqQZJ90nSM-29" value="Hoàn tác" style="edgeStyle=orthogonalEdgeStyle;rounded=0;orthogonalLoop=1;jettySize=auto;html=1;exitX=0;exitY=0.5;exitDx=0;exitDy=0;" edge="1" parent="1" source="H1n2g7a09TPqQZJ90nSM-12" target="H1n2g7a09TPqQZJ90nSM-14">
          <mxGeometry relative="1" as="geometry" />
        </mxCell>
        <mxCell id="H1n2g7a09TPqQZJ90nSM-33" style="edgeStyle=orthogonalEdgeStyle;rounded=0;orthogonalLoop=1;jettySize=auto;html=1;exitDx=0;exitDy=0;" edge="1" parent="1" source="H1n2g7a09TPqQZJ90nSM-34">
          <mxGeometry relative="1" as="geometry">
            <mxPoint x="1160" y="474.52941176470586" as="targetPoint" />
          </mxGeometry>
        </mxCell>
        <mxCell id="H1n2g7a09TPqQZJ90nSM-12" value="&lt;p style=&quot;margin:0px;margin-top:4px;text-align:center;text-decoration:underline;&quot;&gt;&lt;b&gt;Deleted&lt;/b&gt;&lt;/p&gt;&lt;hr size=&quot;1&quot; style=&quot;border-style:solid;&quot;&gt;&lt;p style=&quot;margin:0px;margin-left:8px;&quot;&gt;&lt;br&gt;&lt;/p&gt;" style="verticalAlign=top;align=left;overflow=fill;html=1;whiteSpace=wrap;rounded=1;" vertex="1" parent="1">
          <mxGeometry x="890" y="430" width="160" height="90" as="geometry" />
        </mxCell>
        <mxCell id="H1n2g7a09TPqQZJ90nSM-26" value="Save change" style="rounded=0;orthogonalLoop=1;jettySize=auto;html=1;exitX=1;exitY=0;exitDx=0;exitDy=0;entryX=0.25;entryY=1;entryDx=0;entryDy=0;" edge="1" parent="1" source="H1n2g7a09TPqQZJ90nSM-13" target="H1n2g7a09TPqQZJ90nSM-11">
          <mxGeometry relative="1" as="geometry" />
        </mxCell>
        <mxCell id="H1n2g7a09TPqQZJ90nSM-13" value="&lt;p style=&quot;margin:0px;margin-top:4px;text-align:center;text-decoration:underline;&quot;&gt;&lt;b&gt;Modified&lt;/b&gt;&lt;/p&gt;&lt;hr size=&quot;1&quot; style=&quot;border-style:solid;&quot;&gt;&lt;p style=&quot;margin:0px;margin-left:8px;&quot;&gt;&lt;br&gt;&lt;/p&gt;" style="verticalAlign=top;align=left;overflow=fill;html=1;whiteSpace=wrap;rounded=1;" vertex="1" parent="1">
          <mxGeometry x="205" y="430" width="160" height="90" as="geometry" />
        </mxCell>
        <mxCell id="H1n2g7a09TPqQZJ90nSM-30" value="Xoá ảnh" style="edgeStyle=orthogonalEdgeStyle;rounded=0;orthogonalLoop=1;jettySize=auto;html=1;exitX=1;exitY=0.25;exitDx=0;exitDy=0;entryX=0;entryY=0.25;entryDx=0;entryDy=0;" edge="1" parent="1" source="H1n2g7a09TPqQZJ90nSM-14" target="H1n2g7a09TPqQZJ90nSM-12">
          <mxGeometry relative="1" as="geometry" />
        </mxCell>
        <mxCell id="H1n2g7a09TPqQZJ90nSM-32" value="Khôi phục" style="rounded=0;orthogonalLoop=1;jettySize=auto;html=1;exitX=1;exitY=0;exitDx=0;exitDy=0;entryX=0.75;entryY=1;entryDx=0;entryDy=0;" edge="1" parent="1" source="H1n2g7a09TPqQZJ90nSM-14" target="H1n2g7a09TPqQZJ90nSM-11">
          <mxGeometry relative="1" as="geometry" />
        </mxCell>
        <mxCell id="H1n2g7a09TPqQZJ90nSM-14" value="&lt;p style=&quot;margin:0px;margin-top:4px;text-align:center;text-decoration:underline;&quot;&gt;&lt;b&gt;Archived&lt;/b&gt;&lt;/p&gt;&lt;hr size=&quot;1&quot; style=&quot;border-style:solid;&quot;&gt;&lt;p style=&quot;margin:0px;margin-left:8px;&quot;&gt;&lt;br&gt;&lt;/p&gt;" style="verticalAlign=top;align=left;overflow=fill;html=1;whiteSpace=wrap;rounded=1;" vertex="1" parent="1">
          <mxGeometry x="530" y="430" width="160" height="90" as="geometry" />
        </mxCell>
        <mxCell id="H1n2g7a09TPqQZJ90nSM-23" value="" style="group" vertex="1" connectable="0" parent="1">
          <mxGeometry x="510" y="140" width="340" height="180" as="geometry" />
        </mxCell>
        <mxCell id="H1n2g7a09TPqQZJ90nSM-11" value="&lt;p style=&quot;margin:0px;margin-top:4px;text-align:center;text-decoration:underline;&quot;&gt;&lt;b&gt;Published&lt;/b&gt;&lt;/p&gt;&lt;hr size=&quot;1&quot; style=&quot;border-style:solid;&quot;&gt;&lt;p style=&quot;margin:0px;margin-left:8px;&quot;&gt;&lt;br&gt;&lt;/p&gt;" style="verticalAlign=top;align=left;overflow=fill;html=1;whiteSpace=wrap;rounded=1;" vertex="1" parent="H1n2g7a09TPqQZJ90nSM-23">
          <mxGeometry width="340" height="180" as="geometry" />
        </mxCell>
        <mxCell id="H1n2g7a09TPqQZJ90nSM-18" value="Thay đổi chế độ" style="edgeStyle=orthogonalEdgeStyle;rounded=0;orthogonalLoop=1;jettySize=auto;html=1;exitX=1;exitY=0.25;exitDx=0;exitDy=0;entryX=0;entryY=0.25;entryDx=0;entryDy=0;" edge="1" parent="H1n2g7a09TPqQZJ90nSM-23" source="H1n2g7a09TPqQZJ90nSM-15" target="H1n2g7a09TPqQZJ90nSM-16">
          <mxGeometry relative="1" as="geometry" />
        </mxCell>
        <mxCell id="H1n2g7a09TPqQZJ90nSM-15" value="&lt;p style=&quot;margin:0px;margin-top:4px;text-align:center;text-decoration:underline;&quot;&gt;&lt;b&gt;Private&lt;/b&gt;&lt;/p&gt;&lt;hr size=&quot;1&quot; style=&quot;border-style:solid;&quot;&gt;&lt;p style=&quot;margin:0px;margin-left:8px;&quot;&gt;&lt;br&gt;&lt;/p&gt;" style="verticalAlign=top;align=left;overflow=fill;html=1;whiteSpace=wrap;rounded=1;" vertex="1" parent="H1n2g7a09TPqQZJ90nSM-23">
          <mxGeometry x="60" y="60" width="80" height="60" as="geometry" />
        </mxCell>
        <mxCell id="H1n2g7a09TPqQZJ90nSM-21" value="Thay đổi chế độ" style="edgeStyle=orthogonalEdgeStyle;rounded=0;orthogonalLoop=1;jettySize=auto;html=1;exitX=0;exitY=0.75;exitDx=0;exitDy=0;entryX=1;entryY=0.75;entryDx=0;entryDy=0;" edge="1" parent="H1n2g7a09TPqQZJ90nSM-23" source="H1n2g7a09TPqQZJ90nSM-16" target="H1n2g7a09TPqQZJ90nSM-15">
          <mxGeometry relative="1" as="geometry" />
        </mxCell>
        <mxCell id="H1n2g7a09TPqQZJ90nSM-16" value="&lt;p style=&quot;margin:0px;margin-top:4px;text-align:center;text-decoration:underline;&quot;&gt;&lt;b&gt;Public&lt;/b&gt;&lt;/p&gt;&lt;hr size=&quot;1&quot; style=&quot;border-style:solid;&quot;&gt;&lt;p style=&quot;margin:0px;margin-left:8px;&quot;&gt;&lt;br&gt;&lt;/p&gt;" style="verticalAlign=top;align=left;overflow=fill;html=1;whiteSpace=wrap;rounded=1;" vertex="1" parent="H1n2g7a09TPqQZJ90nSM-23">
          <mxGeometry x="250" y="60" width="80" height="60" as="geometry" />
        </mxCell>
        <mxCell id="H1n2g7a09TPqQZJ90nSM-22" style="edgeStyle=orthogonalEdgeStyle;rounded=0;orthogonalLoop=1;jettySize=auto;html=1;entryX=0;entryY=0.5;entryDx=0;entryDy=0;" edge="1" parent="H1n2g7a09TPqQZJ90nSM-23" source="H1n2g7a09TPqQZJ90nSM-17" target="H1n2g7a09TPqQZJ90nSM-15">
          <mxGeometry relative="1" as="geometry" />
        </mxCell>
        <mxCell id="H1n2g7a09TPqQZJ90nSM-17" value="" style="shape=waypoint;sketch=0;fillStyle=solid;size=6;pointerEvents=1;points=[];fillColor=none;resizable=0;rotatable=0;perimeter=centerPerimeter;snapToPoint=1;" vertex="1" parent="H1n2g7a09TPqQZJ90nSM-23">
          <mxGeometry x="4" y="80" width="20" height="20" as="geometry" />
        </mxCell>
        <mxCell id="H1n2g7a09TPqQZJ90nSM-25" value="Update Info" style="rounded=0;orthogonalLoop=1;jettySize=auto;html=1;exitX=0;exitY=1;exitDx=0;exitDy=0;entryX=0.5;entryY=0;entryDx=0;entryDy=0;" edge="1" parent="1" source="H1n2g7a09TPqQZJ90nSM-11" target="H1n2g7a09TPqQZJ90nSM-13">
          <mxGeometry relative="1" as="geometry" />
        </mxCell>
        <mxCell id="H1n2g7a09TPqQZJ90nSM-28" value="Xoá ảnh" style="rounded=0;orthogonalLoop=1;jettySize=auto;html=1;exitX=1;exitY=1;exitDx=0;exitDy=0;entryX=0.5;entryY=0;entryDx=0;entryDy=0;" edge="1" parent="1" source="H1n2g7a09TPqQZJ90nSM-11" target="H1n2g7a09TPqQZJ90nSM-12">
          <mxGeometry relative="1" as="geometry" />
        </mxCell>
        <mxCell id="H1n2g7a09TPqQZJ90nSM-31" value="Lưu trữ ảnh" style="rounded=0;orthogonalLoop=1;jettySize=auto;html=1;exitX=0.5;exitY=1;exitDx=0;exitDy=0;entryX=0.5;entryY=0;entryDx=0;entryDy=0;" edge="1" parent="1" source="H1n2g7a09TPqQZJ90nSM-11" target="H1n2g7a09TPqQZJ90nSM-14">
          <mxGeometry relative="1" as="geometry" />
        </mxCell>
        <mxCell id="H1n2g7a09TPqQZJ90nSM-35" value="" style="edgeStyle=orthogonalEdgeStyle;rounded=0;orthogonalLoop=1;jettySize=auto;html=1;exitX=1;exitY=0.5;exitDx=0;exitDy=0;" edge="1" parent="1" source="H1n2g7a09TPqQZJ90nSM-12" target="H1n2g7a09TPqQZJ90nSM-34">
          <mxGeometry relative="1" as="geometry">
            <mxPoint x="1160" y="474.52941176470586" as="targetPoint" />
            <mxPoint x="1050" y="475" as="sourcePoint" />
          </mxGeometry>
        </mxCell>
        <mxCell id="H1n2g7a09TPqQZJ90nSM-36" value="Xoá ảnh xong" style="edgeLabel;html=1;align=center;verticalAlign=middle;resizable=0;points=[];" vertex="1" connectable="0" parent="H1n2g7a09TPqQZJ90nSM-35">
          <mxGeometry x="-0.0128" y="-3" relative="1" as="geometry">
            <mxPoint as="offset" />
          </mxGeometry>
        </mxCell>
        <mxCell id="H1n2g7a09TPqQZJ90nSM-34" value="" style="shape=waypoint;sketch=0;fillStyle=solid;size=6;pointerEvents=1;points=[];fillColor=none;resizable=0;rotatable=0;perimeter=centerPerimeter;snapToPoint=1;" vertex="1" parent="1">
          <mxGeometry x="1150" y="465" width="20" height="20" as="geometry" />
        </mxCell>
        <mxCell id="H1n2g7a09TPqQZJ90nSM-38" value="" style="shape=waypoint;sketch=0;fillStyle=solid;size=6;pointerEvents=1;points=[];fillColor=none;resizable=0;rotatable=0;perimeter=centerPerimeter;snapToPoint=1;" vertex="1" parent="1">
          <mxGeometry x="160" y="220" width="20" height="20" as="geometry" />
        </mxCell>
      </root>
    </mxGraphModel>
  </diagram>
</mxfile>
